<svg xmlns="http://www.w3.org/2000/svg" viewBox="0 0 49.14 56.13"><title>Asset 12</title><g id="Layer_2" data-name="Layer 2"><g id="Layer_1-2" data-name="Layer 1"><path d="M0,24.57A24.57,24.57,0,0,0,24.41,49.13V0A24.57,24.57,0,0,0,0,24.57Z" style="fill:#f4802a"/><path d="M49.14,24.57C49.14,11,37.85,0,23.91,0h-.16V49.13h.16C37.85,49.13,49.14,38.13,49.14,24.57Z" style="fill:#f4802a"/><path d="M47.48,24.57A22.91,22.91,0,1,1,24.57,1.66,22.93,22.93,0,0,1,47.48,24.57Zm-1.94,0a21,21,0,1,0-21,21A21,21,0,0,0,45.54,24.57Z" style="fill:#fff"/><text></text><path d="M27.5,16.09a17.89,17.89,0,0,0-.27-2.21,1.83,1.83,0,0,0-2.18-1.42,2.16,2.16,0,0,0-2,2.33c0,1.9.14,3.81.26,5.7.11,1.54.26,3.07.44,4.6a1.41,1.41,0,0,0,1.36,1.42c.75,0,1.23-.4,1.5-1.37a3.55,3.55,0,0,0,.12-.65C27,21.75,27.24,19,27.5,16.09Z" style="fill:#fff;fill-rule:evenodd"/><path d="M25.17,32.65a2.08,2.08,0,0,0,2.28-2.08,2.16,2.16,0,0,0-2.11-2.28A2.13,2.13,0,0,0,23,30.44,2.06,2.06,0,0,0,25.17,32.65Z" style="fill:#fff;fill-rule:evenodd"/><path d="M25,33.9h-9.9a2.83,2.83,0,0,1-2.46-1.12,2.76,2.76,0,0,1-.1-3.25L21,14.62c.49-.87,1-1.75,1.48-2.62a2.76,2.76,0,0,1,5-.07q4.56,8,9.06,15.93c.33.57.65,1.14,1,1.71A2.78,2.78,0,0,1,35,33.89C31.65,33.91,28.3,33.9,25,33.9Z" style="fill:#fff;fill-rule:evenodd"/><path d="M27,17.07c-.24,2.63-.46,5.1-.69,7.56a3.84,3.84,0,0,1-.11.59c-.24.87-.67,1.26-1.35,1.23s-1.13-.59-1.22-1.28c-.17-1.37-.3-2.75-.4-4.14-.11-1.7-.21-3.41-.23-5.12a2,2,0,0,1,1.79-2.11,1.65,1.65,0,0,1,2,1.29A14.09,14.09,0,0,1,27,17.07Z" style="fill:#f4802a;fill-rule:evenodd"/><path d="M24.86,32a1.84,1.84,0,0,1-1.93-2,2,2,0,1,1,4,.12A1.84,1.84,0,0,1,24.86,32Z" style="fill:#f4802a;fill-rule:evenodd"/></g></g></svg>