<svg xmlns="http://www.w3.org/2000/svg" viewBox="0 0 49.36 56.38"><title>Asset 13</title><g id="Layer_2" data-name="Layer 2"><g id="Layer_1-2" data-name="Layer 1"><path d="M0,24.68A24.68,24.68,0,0,0,24.52,49.35V0A24.68,24.68,0,0,0,0,24.68Z" style="fill:#10a651"/><path d="M49.36,24.68C49.36,11.05,38,0,24,0h-.16V49.35H24C38,49.35,49.36,38.3,49.36,24.68Z" style="fill:#10a651"/><path d="M47.69,24.68a23,23,0,1,1-23-23A23,23,0,0,1,47.69,24.68Zm-1.95,0a21.06,21.06,0,1,0-21.06,21A21.08,21.08,0,0,0,45.74,24.68Z" style="fill:#fff"/><text></text><path d="M43.72,27.92H15.06V25.4H43.72Z" style="fill:#fff;fill-rule:evenodd"/><path d="M6.06,31.53l5.07-.87.78-.12c.54,3,1.08,5.9,1.63,8.89-3,.84-3.61.46-5.85.46A28.07,28.07,0,0,1,6.06,31.53Z" style="fill:#fff;fill-rule:evenodd"/><path d="M28,11.14a2.09,2.09,0,0,1-.56-1.88,1.9,1.9,0,0,1,.71-1.15,2,2,0,0,1,2.56.07,1.91,1.91,0,0,1,.67,1.44,2.13,2.13,0,0,1-.61,1.51,5.32,5.32,0,0,0,.55.11A11.85,11.85,0,0,1,38,14.75,12.58,12.58,0,0,1,41,20.16a12.82,12.82,0,0,1,.45,4.27c0,.15-.06.21-.21.2h-20A19.37,19.37,0,0,1,23,17.42a15.47,15.47,0,0,1,5-5.36L28,12c-.32.12-.64.22-1,.35a12.11,12.11,0,0,0-4.15,2.88,11.93,11.93,0,0,0-2,3.09,17.76,17.76,0,0,0-1.32,5.05c0,.33-.06.66-.08,1,0,.19-.09.27-.29.26H17.53c-.19,0-.25-.06-.26-.25a12.93,12.93,0,0,1,1.34-6.53,12.18,12.18,0,0,1,4.68-5.07,11.41,11.41,0,0,1,4.38-1.57Z" style="fill:#fff;fill-rule:evenodd"/><path d="M19.6,31.88c1.59.11,3.18.17,4.76.32a4.87,4.87,0,0,0,2.36-.42L32,29.69a1.12,1.12,0,0,1,1.35.19,1,1,0,0,1-.18,1.45C31.05,32.66,29,34,26.9,35.38c-.36.24-.76.43-1.15.64a2.54,2.54,0,0,1-1.3.3l-7.79-.06c-.32,0-.63,0-.94,0a1.83,1.83,0,0,0-1.32.79c-.17.19-.32.41-.53.68-.07-.49-.14-.91-.2-1.33-.3-1.85-.59-3.7-.89-5.55,0-.19,0-.25.19-.31l3.78-1.36a2,2,0,0,1,.54-.11l6.33-.22h.29a.86.86,0,0,1,1,.76.87.87,0,0,1-.7,1l-2.89.74c-.59.15-1.17.32-1.75.48Z" style="fill:#fff;fill-rule:evenodd"/></g></g></svg>