<svg xmlns="http://www.w3.org/2000/svg" viewBox="0 0 49.85 56.14"><title>Asset 14</title><g id="Layer_2" data-name="Layer 2"><g id="Layer_1-2" data-name="Layer 1"><circle cx="24.93" cy="24.93" r="24.93" style="fill:#ed0033"/><path d="M48.17,24.93A23.24,23.24,0,1,1,24.93,1.69,23.26,23.26,0,0,1,48.17,24.93Zm-2,0A21.27,21.27,0,1,0,24.93,46.19,21.28,21.28,0,0,0,46.19,24.93Z" style="fill:#fff"/><text></text><path d="M35.53,26.58c-.19-.2-.35-.38-.54-.57a1.54,1.54,0,0,1-.05.17A3.93,3.93,0,0,0,34,24.92,1,1,0,0,0,34,25c-.07.75-.14,1.49-.2,2.24,0,0,0,.11,0,.16a.25.25,0,0,1,0,.12s-.07,0-.08,0a.16.16,0,0,1,0-.11c.08-.81.15-1.62.23-2.43a.62.62,0,0,1,0-.12,4,4,0,0,0-1.24.92v-.18l-.69.38L32,25.8l-.51.26.05-.15-.56.2s0-.07,0-.11l-.55.13,0-.11-1.17.23v0l1.1-.6-.07-.09.54-.19-.11-.1.67-.13L31.35,25l.76,0L32,24.85l.53,0,0-.1,1.15.06a.07.07,0,0,0,0-.05l-1.85-.11.15-.12-.85,0,.15-.16h-.79a.64.64,0,0,0,.1-.13h-.69l.2-.16-.84-.18a1.73,1.73,0,0,0,.21-.13l-.77-.26.28-.13-.7-.21.2-.11-.65-.21.2-.08-.5-.22.19-.09-.54-.17s0,0,0,0l.14-.05-1-.39v0l.87,0a.81.81,0,0,0,0-.15l.59.16a1.42,1.42,0,0,0-.05-.16l.58.16c.08,0,.16.05.15-.1l.69.26a1.21,1.21,0,0,1,0-.19l.61.35a1.34,1.34,0,0,1,0-.19l.58.44a1.16,1.16,0,0,1,0-.18l.48.41c0-.06,0-.09,0-.15.15.16.28.31.42.48l0-.17c.16.17.32.33.48.51l.05-.19.48.56v-.16l1.37,1.12s0,0,0,0l-1.18-1.09.15,0c-.16-.13-.31-.23-.47-.35l.14-.05-.6-.37a.46.46,0,0,1,.07-.07l-.54-.32.12-.1-.54-.38.16,0s0,0,0,0l-.82-.72h.19c-.21-.16-.39-.31-.59-.48l.13,0-.35-.36.18,0-.43-.46.13-.07-.42-.49.22-.07-.41-.5h.24l-.27-.48.17,0c-.1-.19-.21-.37-.32-.56l.19,0c-.08-.19-.17-.36-.26-.56l.14,0c-.12-.18-.22-.35-.34-.52l.15,0-.39-1,0,0,.76.83.08-.1c.13.2.25.39.39.59,0,0,0-.09,0-.15l.43.56A1.56,1.56,0,0,0,30,17c.13.22.25.42.37.64l.06-.09.32.58.05-.13.26.59.08-.1c.07.22.15.41.23.63l.09-.24c.08.26.15.49.22.74,0-.07.06-.11.1-.19.09.28.17.52.25.79l.09-.15c.1.32.19.62.3,1l0-.2c.1.3.18.56.26.82l.08,0c.06.26.12.52.18.8l.11-.17c0,.28.1.53.15.81l.09-.15a5.16,5.16,0,0,0,.58,1.75,9,9,0,0,1-.18-1.16c0-.31-.15-.6-.13-.89s-.07-.41,0-.58,0-.41,0-.61c0,0,0-.07,0-.11a.34.34,0,0,0,0-.1c0-.13,0-.25-.06-.38s-.1-.18.06-.24a.36.36,0,0,0,0-.15c0-.21,0-.41,0-.63l.12,0c0-.26,0-.51,0-.77l.11,0c0-.25,0-.51,0-.77l.13,0c0-.2,0-.38,0-.57l.1,0,0-.64.12.05,0-.7.17.07c0-.22,0-.43,0-.62.23-.15.11-.41.23-.57s.08-.06.1-.1.06-.22.1-.32.06-.06.09-.09l0,0c0-.18.09-.36.14-.54l0,0s.08-.06.1-.1.08-.23.12-.34,0-.15.12-.11a.27.27,0,0,0,.06-.11c.09-.28.18-.55.3-.83,0,.33,0,.67,0,1l0,0s.06.08.06.13,0,.32,0,.5h.1a2.82,2.82,0,0,0,0,.41c0,.06-.07.17.07.17a.17.17,0,0,1,0,.08v.43l.11,0-.09.57.11,0-.17.65.19,0-.18.67h.12c-.05.2-.11.4-.16.61h.11c0,.18-.1.36-.14.55h.13c-.07.24-.15.48-.22.73H36l-.27.73h.13l-.21.62c0,.05-.09.13,0,.17s0,.06,0,.09-.13.25-.18.38-.14.13,0,.2a.17.17,0,0,1,0,.05c-.24.29-.25.68-.44,1,0,0,0,.07,0,.1s0,.06,0,.08a8.76,8.76,0,0,0-.47,1c-.15.23-.27.49-.4.73l0,.08,0,0c.18-.24.38-.47.56-.72s.32-.51.48-.78c0,.05,0,.09,0,.16l.38-.73,0,.19.43-.71.05.07.49-.7v.2l.57-.81a.75.75,0,0,1,.05.16l.47-.68,0,.21.43-.64c0,.1,0,.17,0,.27l.42-.54a.42.42,0,0,0,0,.12c.15-.16.28-.32.42-.48,0,0,0,.07,0,.13L39.6,19l.06.08.52-.47c0,.05,0,.09,0,.15l.57-.4c0,.06,0,.09,0,.15l.55-.44s0,.08,0,.13l1-.57,0,0-.67.79.13.08-.46.38.11.08-.42.45.18.07-.48.44.17.08-.42.38.23.05-.53.35.17.15-.56.33.14.11-.56.31.15.09-.44.24.12.07-.72.28.18,0,0,0-1,.46.13.09-.66.2.14.11-.63.16a.35.35,0,0,0,.05.08l-.69.17.11.09-.56.19.16.06-1.37.64v0l1.52-.6,0,.14.61-.39v.19l.62-.33,0,.17.54-.33a.86.86,0,0,0,0,.16l.59-.26,0,.19.69-.24c0,.06,0,.12,0,.19l.68-.16a1.89,1.89,0,0,1-.06.18l.72,0a.76.76,0,0,0,0,.14l.72,0-.09.13.61,0-.06.12.85.24v0l-1.06.07.1.12h-.6a2.09,2.09,0,0,1,.17.14l-.56.05.17.14h-.68l.16.17h-.74l.24.21-.83,0,.18.18-.86-.09c0,.08.08.13.13.22l-.67-.2c0,.05.05.1.08.16l-.76-.23a1.82,1.82,0,0,0,.08.19l-.8-.29.11.17-1.84-.46v.05l1.13.29s0,.07,0,.1l.52.13-.12.07.69.25-.15.09.62.32-.15.07.47.35-.11,0,.88.92,0,0L36.87,27s0,.07,0,.12l-.49-.3V27l-.46-.36a.71.71,0,0,0,0,.15l-.41-.4A1.94,1.94,0,0,1,35.53,26.58Z" style="fill:#fff;fill-rule:evenodd"/><path d="M14.57,18.78l-.27-.31c.63-.58,1,.28,1.71.21l7.37-7.54c.42.36.71.74,1.08,1l.13-.17L23,10.49l1.51-1.65.6.82.11-.08.3-.19c-.89-.86-1.76-1.71-2.65-2.59-.16.12-.19.3.06.5s.34.29.52.46L21.87,9.17,20.32,7.61c-.13.19-.13.19.81,1.28a3,3,0,0,0-.38.24l-7,7a.45.45,0,0,0-.12.64,8.39,8.39,0,0,1,.41.85l-.31.27-.3-.24-.22.41,0,0a7.36,7.36,0,0,0-1.6,2.1,3.74,3.74,0,0,1-.94,1.22c-1,1-2,1.95-2.94,2.93a2.23,2.23,0,0,0-.2.3l.12.09.87-.88c.78-.78,1.56-1.57,2.35-2.34a3.47,3.47,0,0,1,1.7-1.07c.15,0,.28-.19.4-.3.4-.36.8-.74,1.21-1.1A2,2,0,0,1,14.57,18.78Zm6-6.66-.26.24L19,11.16l.26-.24ZM15.75,17l-1.3-1.25.19-.21L16,16.72Zm3.44-3.45L17.9,12.27l.27-.29,1.28,1.25Zm-.9.89-.27.25-1.27-1.19.24-.31C17.45,13.6,17.86,14,18.29,14.4Zm-1.41,1.41L15.6,14.57l.26-.24,1.26,1.18C17,15.62,17,15.72,16.88,15.81Z" style="fill:#fff;fill-rule:evenodd"/><path d="M20.58,12.12l-1.29-1.2-.26.24,1.29,1.2Z" style="fill:#c64031;fill-rule:evenodd"/><path d="M15.75,17l.22-.24L14.64,15.5l-.19.21Z" style="fill:#c64031;fill-rule:evenodd"/><path d="M19.19,13.51l.26-.28L18.17,12l-.27.29Z" style="fill:#c64031;fill-rule:evenodd"/><path d="M18.29,14.4c-.43-.4-.84-.8-1.3-1.25l-.24.31L18,14.65Z" style="fill:#c64031;fill-rule:evenodd"/><path d="M16.88,15.81c.08-.09.15-.19.24-.3l-1.26-1.18-.26.24Z" style="fill:#c64031;fill-rule:evenodd"/><path d="M14.89,34.7a1.88,1.88,0,0,1,1.88-1.88,1.76,1.76,0,0,1,1,.33h0a1.87,1.87,0,0,1,.34.29h0a16.93,16.93,0,0,1,1.46,1.47,1.87,1.87,0,0,1,.44-.66A9.61,9.61,0,0,1,26.71,32a11.79,11.79,0,0,1,2.41.25c0-.27,0-.44,0-.44h5a37.84,37.84,0,0,1,.22,4.07,37.84,37.84,0,0,1-.22,4.07h-5s0-.47-.09-1.15a3.32,3.32,0,0,0-2.38.62,7.29,7.29,0,0,1-4,1.15,6.65,6.65,0,0,1-3.87-1.19h0l0,0A8.41,8.41,0,0,1,18,38.6L17,37.69A16.73,16.73,0,0,1,15.41,36h0a1.83,1.83,0,0,1-.53-1.3Zm1.14.74c.25.25,1.32,1.35,1.61,1.63.74.74,1.1,1.08,1.26,1.27h0a3.26,3.26,0,0,0,.36.29,6.17,6.17,0,0,0,3.46,1,6.1,6.1,0,0,0,3.49-1.06h0A4.56,4.56,0,0,1,29,37.88c0-.67-.07-1.41-.07-2,0-.88.06-2,.12-2.78a11.13,11.13,0,0,0-2.35-.26,8.86,8.86,0,0,0-6.08,2.13,1,1,0,0,0-.26.67,1,1,0,0,0,1,1h.06a9.58,9.58,0,0,0,2.71-.76l.31.82a10.43,10.43,0,0,1-3.09.82h0a1.88,1.88,0,0,1-1.79-1.34h0a14.82,14.82,0,0,0-2-2.06h0l-.28-.25a.79.79,0,0,0-.49-.12,1,1,0,0,0-1,1,1.3,1.3,0,0,0,.27.73Z" style="fill:#fff"/><path d="M21,32.44a5.63,5.63,0,1,1,5.63-5.63A5.64,5.64,0,0,1,21,32.44Zm0-10.28a4.65,4.65,0,1,0,4.65,4.65A4.65,4.65,0,0,0,21,22.16Z" style="fill:#fff"/><path d="M22.52,27.55c0,.8-.46,1.27-1.39,1.42v.91h-.62V29a6,6,0,0,1-1.05-.11V24.26a6,6,0,0,1,1.05-.16v-.74h.62v.78c.81.12,1.21.54,1.21,1.25a1.21,1.21,0,0,1-.53,1A1.29,1.29,0,0,1,22.52,27.55Zm-.85-2.15c0-.47-.37-.7-1.1-.7l-.44.06v1.35h.62a1,1,0,0,0,.67-.2A.63.63,0,0,0,21.67,25.4Zm.21,2.16c0-.55-.42-.83-1.25-.83h-.5v1.65a2.61,2.61,0,0,0,.42,0,1.87,1.87,0,0,0,.9-.2A.72.72,0,0,0,21.88,27.56Z" style="fill:#fff"/></g></g></svg>