<svg xmlns="http://www.w3.org/2000/svg" width="9.979" height="9.877" viewBox="0 0 9.979 9.877">
  <g id="Group_1884" data-name="Group 1884" transform="translate(-10327.884 -10212.558)">
    <path id="Path_2818" data-name="Path 2818" d="M10335.066,10220.153h-6.77a.414.414,0,0,1-.413-.413v-6.77a.414.414,0,0,1,.413-.413h6.77a.413.413,0,0,1,.412.413v6.77A.413.413,0,0,1,10335.066,10220.153Zm-6.423-.76h6.076v-6.075h-6.076Z" fill="#fff"/>
    <path id="Path_2819" data-name="Path 2819" d="M10337.572,10222.432h-1.333v-.76h.759v-.759h.76v1.333C10337.986,10222.475,10337.572,10222.432,10337.572,10222.432Z" fill="#fff"/>
    <rect id="Rectangle_380" data-name="Rectangle 380" width="2.278" height="0.759" transform="translate(10333.201 10221.672)" fill="#fff"/>
    <path id="Path_2820" data-name="Path 2820" d="M10331.682,10222.432h-1.133s-.414.043-.386-.186v-1.333h.759v.759h.76Z" fill="#fff"/>
    <path id="Path_2821" data-name="Path 2821" d="M10337.758,10216.356h-.76v-.761h-.759v-.759h1.333c.229-.028.414.158.186.386Z" fill="#fff"/>
    <rect id="Rectangle_381" data-name="Rectangle 381" width="0.759" height="2.278" transform="translate(10336.998 10217.875)" fill="#fff"/>
  </g>
</svg>
