<svg height="10.748" viewBox="0 0 10.906 10.748" width="10.906" xmlns="http://www.w3.org/2000/svg"><g fill="#106f49" transform="translate(-9153.889 -10129.315)"><path d="m9164.434 10133.97h-3.5l-.626.626a1.24 1.24 0 0 1 -.118.1h3.884v2.409l-.376-1.321a.362.362 0 0 0 -.349-.264h-7.65v-2.012h2.071l-.589-.588a.959.959 0 0 1 -.111-.135h-1.733a.361.361 0 0 0 -.361.36v2.374h-.724a.363.363 0 0 0 -.348.462l1.043 3.635a.619.619 0 0 0 .595.448h8.636a.619.619 0 0 0 .619-.619v-5.112a.361.361 0 0 0 -.361-.362zm0 0"/><path d="m9159.37 10134.085a.3.3 0 0 0 .424 0l1.681-1.679a.3.3 0 0 0 -.213-.514h-.733v-2.178a.4.4 0 0 0 -.4-.4h-1.092a.4.4 0 0 0 -.4.4v2.178h-.734a.3.3 0 0 0 -.211.514zm0 0"/></g></svg>