<svg xmlns="http://www.w3.org/2000/svg" viewBox="0 0 54.93 54.93"><title>Asset 18</title><g id="Layer_2" data-name="Layer 2"><g id="Layer_1-2" data-name="Layer 1"><circle cx="27.46" cy="27.46" r="27.46" style="fill:#38a86b;opacity:0.12"/><path d="M29.31,46.32a19.24,19.24,0,0,1-5.43-.24A19,19,0,0,1,13.53,14.62" style="fill:none;stroke:#82e0a8;stroke-linecap:round;stroke-linejoin:round;stroke-width:0.832226525986649px"/><path d="M41.63,40.05l.11-.13A18.94,18.94,0,0,0,25.61,8.61" style="fill:none;stroke:#82e0a8;stroke-linecap:round;stroke-linejoin:round;stroke-width:0.832226525986649px"/><polyline points="46.33 40.3 40.93 40.73 40.49 35.34" style="fill:none;stroke:#82e0a8;stroke-linecap:round;stroke-linejoin:round;stroke-width:0.832226525986649px"/><polyline points="8.55 14.67 13.95 14.23 14.39 19.63" style="fill:none;stroke:#82e0a8;stroke-linecap:round;stroke-linejoin:round;stroke-width:0.832226525986649px"/><path d="M29.86,22.68h2.25l-2.25-2.26Z" style="fill:#82e0a8"/><path d="M29.17,23V19.94H20.28V37H32.59V23.36H29.51a.34.34,0,0,1-.34-.34Zm-6.84-1h2.74v.69H22.33Zm0,4.11H27.8v.68H22.33Zm0,4.1h2.4v.68h-2.4ZM23.7,35H22.33V34.3H23.7Zm6.84,0H24.38V34.3h6.16Zm0-2.05H22.33v-.69h8.21Zm0-2.06H25.41V30.2h5.13Zm0-2.05H22.33v-.68h8.21Zm0-2H28.49V26.1h2.05Zm0-2.05H22.33V24h8.21Z" style="fill:#82e0a8"/><path d="M22.33,17.89v1.37h7.21l.08,0h0l.1.07,3.42,3.42a.21.21,0,0,1,.06.1l0,0a.28.28,0,0,1,0,.09V35h1.37V17.89Z" style="fill:#82e0a8"/></g></g></svg>