<svg xmlns="http://www.w3.org/2000/svg" viewBox="0 0 49.49 56.53"><title>Asset 1</title><g id="Layer_2" data-name="Layer 2"><g id="Layer_1-2" data-name="Layer 1"><path d="M0,24.74A24.74,24.74,0,0,0,24.58,49.48V0A24.74,24.74,0,0,0,0,24.74Z" style="fill:#eec533"/><path d="M49.49,24.74C49.49,11.08,38.11,0,24.08,0h-.17V49.48h.17C38.11,49.48,49.49,38.4,49.49,24.74Z" style="fill:#eec533"/><path d="M47.82,24.74A23.08,23.08,0,1,1,24.75,1.67,23.1,23.1,0,0,1,47.82,24.74Zm-2,0A21.12,21.12,0,1,0,24.75,45.85,21.13,21.13,0,0,0,45.86,24.74Z" style="fill:#fff"/><text></text><path d="M17,37.76a6,6,0,0,1-5.68-7.89C13,24.57,14.76,19.29,16.58,14A6.13,6.13,0,0,1,28.2,17.9q-2.58,8-5.34,15.83A5.91,5.91,0,0,1,17,37.76Zm-1.2-15.29,8,2.62c.94-2.83,1.94-5.52,2.72-8.27A4,4,0,0,0,23.73,12a4.12,4.12,0,0,0-5.2,2.43C17.56,17,16.72,19.68,15.77,22.47Z" style="fill:#fff;fill-rule:evenodd"/><path d="M40.34,31,31.52,20.2c2.62-1.81,6.7-1,8.91,1.71S42.64,28.71,40.34,31Z" style="fill:#fff;fill-rule:evenodd"/><path d="M29.43,21.86l8.82,10.77c-2.42,1.73-6.39,1.1-8.59-1.32A7,7,0,0,1,29.43,21.86Z" style="fill:#fff;fill-rule:evenodd"/></g></g></svg>