<svg xmlns="http://www.w3.org/2000/svg" viewBox="0 0 50.57 57.76"><title>Asset 2</title><g id="Layer_2" data-name="Layer 2"><g id="Layer_1-2" data-name="Layer 1"><path d="M0,25.28A25.28,25.28,0,0,0,25.12,50.56V0A25.28,25.28,0,0,0,0,25.28Z" style="fill:#e197c1"/><path d="M50.57,25.28C50.57,11.32,39,0,24.6,0h-.16V50.56h.16C39,50.56,50.57,39.24,50.57,25.28Z" style="fill:#e197c1"/><path d="M48.86,25.28A23.58,23.58,0,1,1,25.29,1.71,23.59,23.59,0,0,1,48.86,25.28Zm-2,0A21.58,21.58,0,1,0,25.29,46.85,21.59,21.59,0,0,0,46.86,25.28Z" style="fill:#fff"/><text></text><path d="M22.17,15.07v.8H12.79v-.8ZM15,15.25h0v.45h0Zm.32.45h.06v-.46h-.06Zm.45-.45h-.06v.45h.06Zm.36,0h0v.45h0Zm2.61.45h.06v-.45h-.06Zm.43-.45h-.06v.46h.06Zm.32.45h.06v-.46h-.06Zm.44-.46h0v.46h0Zm.32.46h.05v-.45h-.05Z" style="fill:#fff;fill-rule:evenodd"/><path d="M22.17,15.94q-1,8.25-2,16.47H14.8q-1-8.23-2-16.47Z" style="fill:#fff;fill-rule:evenodd"/><path d="M30.29,25.58a3.81,3.81,0,0,1,7.37-.14,3.68,3.68,0,0,1-.15,2.47A3.82,3.82,0,0,1,35,30.15c0,.11.09.2.08.27s.09.25.23.32a5.73,5.73,0,0,1,.86.51,1.26,1.26,0,0,1,.53,1.06c0,.3,0,.61,0,.91a1.5,1.5,0,0,1-.78,1.46,4.54,4.54,0,0,1-.62.32,7.67,7.67,0,0,1-4.47.29A4.05,4.05,0,0,1,29,34.46a1.26,1.26,0,0,1-.48-1c0-.37,0-.75,0-1.13a1,1,0,0,1,.41-.94,6,6,0,0,1,1.2-.7,6.48,6.48,0,0,1,2.4-.4l0-.23A3.85,3.85,0,0,1,30.29,25.58Zm-.14,5.66a2.31,2.31,0,0,0-.64.38.63.63,0,0,0,0,1.1,3.62,3.62,0,0,0,1.08.53,6.87,6.87,0,0,0,3.84,0,3.16,3.16,0,0,0,.88-.44.68.68,0,0,0,0-1.22A3.37,3.37,0,0,0,33.85,31c-.47-.08-.94-.11-1.41-.16A6.38,6.38,0,0,0,30.15,31.24Zm1-4.77A2.85,2.85,0,1,0,34,23.63,2.85,2.85,0,0,0,31.15,26.47ZM32,34.11a6.62,6.62,0,0,0,3.09-.35,5.07,5.07,0,0,0,1-.64.84.84,0,0,0,.24-.34,4.53,4.53,0,0,1-2.93,1.14,8,8,0,0,1-3-.25h-.17A5.37,5.37,0,0,0,32,34.11Z" style="fill:#fff;fill-rule:evenodd"/><path d="M20.2,32.59V35H14.75V32.59Z" style="fill:#fff;fill-rule:evenodd"/><path d="M20.2,35.25v.22H14.75v-.22Z" style="fill:#fff;fill-rule:evenodd"/><path d="M15,15.25v.45h0v-.45Z" style="fill:#e197c1;fill-rule:evenodd"/><path d="M15.34,15.7v-.46h.06v.46Z" style="fill:#e197c1;fill-rule:evenodd"/><path d="M15.79,15.25v.45h-.06v-.45Z" style="fill:#e197c1;fill-rule:evenodd"/><path d="M16.15,15.25v.45h0v-.45Z" style="fill:#e197c1;fill-rule:evenodd"/><path d="M18.76,15.7v-.45h.06v.45Z" style="fill:#e197c1;fill-rule:evenodd"/><path d="M19.19,15.25v.45h-.06v-.46Z" style="fill:#e197c1;fill-rule:evenodd"/><path d="M19.51,15.7v-.46h.06v.46Z" style="fill:#e197c1;fill-rule:evenodd"/><path d="M20,15.24v.46h0v-.46Z" style="fill:#e197c1;fill-rule:evenodd"/><path d="M20.27,15.7v-.45h.05v.45Z" style="fill:#e197c1;fill-rule:evenodd"/><path d="M33.85,31a3.37,3.37,0,0,1,1.49.58.68.68,0,0,1,0,1.22,3.16,3.16,0,0,1-.88.44,6.87,6.87,0,0,1-3.84,0,3.62,3.62,0,0,1-1.08-.53.63.63,0,0,1,0-1.1,2.31,2.31,0,0,1,.64-.38,6.38,6.38,0,0,1,2.29-.43C32.91,30.86,33.38,30.89,33.85,31Z" style="fill:#e197c1;fill-rule:evenodd"/><path d="M36.84,26.46A2.85,2.85,0,1,1,34,23.63,2.84,2.84,0,0,1,36.84,26.46Zm-5.42,0A2.58,2.58,0,1,0,34,23.9,2.57,2.57,0,0,0,31.42,26.47Z" style="fill:#e197c1;fill-rule:evenodd"/><path d="M30.25,33.66a5.37,5.37,0,0,0,1.77.45,6.62,6.62,0,0,0,3.09-.35,5.07,5.07,0,0,0,1-.64.84.84,0,0,0,.24-.34,4.53,4.53,0,0,1-2.93,1.14,8,8,0,0,1-3-.25Z" style="fill:#e197c1;fill-rule:evenodd"/><path d="M24.93,29.64c0-.17,0-.3.06-.43h.07c0,.12,0,.24,0,.39h.35c0-.13,0-.26,0-.39l.1,0c0,.13.07.27.13.48,0-.2.06-.33.08-.47h.08c0,.12,0,.25,0,.39h.32c0-.13.06-.27.1-.41l.09,0c0,.13,0,.26,0,.4h.07l0-.39.08,0c0,.13.05.26.07.4H27a2.11,2.11,0,0,1,0-.26c0-.05.06-.09.09-.14s.08.09.09.13a1.32,1.32,0,0,1,0,.28h.07c0-.14,0-.27.05-.4h.06l.06.4h.33V22.05h-5.3V29.6h0l.06-.4h.07c0,.13,0,.26,0,.4h.35a2.61,2.61,0,0,1,0-.28.75.75,0,0,1,.07-.12s.09.08.1.13a.7.7,0,0,0,.08.27c0-.13.05-.26.07-.4h.08c0,.13,0,.26,0,.41h.34a1,1,0,0,1,0-.25A.89.89,0,0,1,24,29.2a.65.65,0,0,1,.08.17,1.93,1.93,0,0,1,0,.24h.07c0-.13,0-.27.05-.4h.07c0,.13,0,.25.07.4h.27c.07-.15.12-.27.17-.4,0,.13.07.26.11.38S24.89,29.6,24.93,29.64Z" style="fill:#fff;fill-rule:evenodd"/><path d="M28.15,29.78h-6v4.07a1.52,1.52,0,0,0,1.65,1.63c.9,0,1.81,0,2.71,0a1.51,1.51,0,0,0,1.61-1.59c0-1.28,0-2.55,0-3.82Z" style="fill:#fff;fill-rule:evenodd"/><path d="M23,21.75v-.3c0-1.31,0-2.62,0-3.93a.59.59,0,0,1,.25-.52,10.2,10.2,0,0,1,4.1-1.8h.1v6.55Zm3.92-5.95c-.85.34-1.7.68-2.53,1a3,3,0,0,0-.7.44c-.09.06-.19.24-.16.3a.42.42,0,0,0,.32.18,2,2,0,0,0,.69-.05,4.51,4.51,0,0,0,2.5-1.87s0,0,0-.06Z" style="fill:#fff;fill-rule:evenodd"/><path d="M27.05,15.78l-.12,0c-.85.34-1.7.68-2.53,1a3,3,0,0,0-.7.44c-.09.06-.19.24-.16.3a.42.42,0,0,0,.32.18,2,2,0,0,0,.69-.05,4.51,4.51,0,0,0,2.5-1.87S27.05,15.81,27.05,15.78Z" style="fill:#e197c1;fill-rule:evenodd"/><path d="M36.57,26.44A2.58,2.58,0,1,1,34,23.9,2.57,2.57,0,0,1,36.57,26.44Zm-1.18.7-2.78-2.65c0,.14,0,.24,0,.27l2.79,2.65C35.4,27.27,35.43,27.17,35.39,27.14ZM32.9,25.83l2.45,2.33.08,0c0-.06,0-.14-.06-.18l-2.46-2.35C32.9,25.71,32.87,25.8,32.9,25.83Z" style="fill:#fff;fill-rule:evenodd"/><path d="M35.4,27.41c0-.14,0-.24,0-.27l-2.78-2.65c0,.14,0,.24,0,.27Z" style="fill:#e197c1;fill-rule:evenodd"/><path d="M32.91,25.59c0,.12,0,.21,0,.24l2.45,2.33.08,0c0-.06,0-.14-.06-.18Z" style="fill:#e197c1;fill-rule:evenodd"/></g></g></svg>