<svg xmlns="http://www.w3.org/2000/svg" viewBox="0 0 50.62 57.82"><title>Asset 10</title><g id="Layer_2" data-name="Layer 2"><g id="Layer_1-2" data-name="Layer 1"><path d="M0,25.3A25.31,25.31,0,0,0,25.15,50.61V0A25.3,25.3,0,0,0,0,25.3Z" style="fill:#1c4c9c"/><path d="M50.62,25.3c0-14-11.64-25.3-26-25.3h-.17V50.61h.17C39,50.61,50.62,39.28,50.62,25.3Z" style="fill:#1c4c9c"/><path d="M48.91,25.3A23.6,23.6,0,1,1,25.31,1.71,23.63,23.63,0,0,1,48.91,25.3Zm-2,0a21.6,21.6,0,1,0-21.6,21.6A21.62,21.62,0,0,0,46.91,25.3Z" style="fill:#fff"/><polygon points="5.43 15.22 5.41 15.63 7.76 21.04 7.92 20.97 5.43 15.22" style="fill:#fff;fill-rule:evenodd"/><path d="M17.55,39.15l-.62.27-1.86-4.3-1.86.81,1.86,4.3-.62.27a.43.43,0,1,0,.34.8L17.9,40a.44.44,0,0,0,.23-.57A.45.45,0,0,0,17.55,39.15Z" style="fill:#fff;fill-rule:evenodd"/><path d="M10.43,25.22a.09.09,0,0,0,0-.12.08.08,0,0,0-.11,0l-1.28.56a.09.09,0,0,0-.05.11.08.08,0,0,0,.11,0l1.29-.55Zm.36.83a.08.08,0,0,0,0-.11.1.1,0,0,0-.11-.05l-1.28.56a.08.08,0,0,0,0,.11.08.08,0,0,0,.11,0l1.28-.55Zm.32.73a.08.08,0,1,0-.07-.15l-1.28.55a.09.09,0,1,0,.06.16l1.29-.56Zm.34.79a.08.08,0,1,0-.07-.15L10.1,28a.08.08,0,0,0,0,.11.08.08,0,0,0,.11.05l1.28-.56Zm.35.81a.08.08,0,0,0,0-.11.08.08,0,0,0-.11,0l-1.28.55a.08.08,0,0,0,0,.11.08.08,0,0,0,.11.05l1.28-.56Zm.33.76a.08.08,0,0,0,0-.11.09.09,0,0,0-.11-.05l-1.28.56a.08.08,0,0,0,0,.11.08.08,0,0,0,.11,0l1.28-.55Zm.32.75a.08.08,0,0,0,.05-.11.08.08,0,0,0-.11,0l-1.28.55a.09.09,0,0,0,0,.12.08.08,0,0,0,.11,0l1.28-.56Zm.34.78a.09.09,0,0,0,.05-.11.08.08,0,0,0-.11,0l-1.29.55a.08.08,0,0,0,0,.11.09.09,0,0,0,.11.05l1.28-.56Zm.33.74a.08.08,0,0,0,0-.11.08.08,0,0,0-.11,0l-1.28.56a.08.08,0,0,0,0,.11.08.08,0,0,0,.11,0l1.29-.56Zm.32.75a.08.08,0,1,0-.07-.15l-1.28.55a.08.08,0,0,0,0,.11.09.09,0,0,0,.11,0l1.28-.56Zm.32.74a.08.08,0,1,0-.07-.15l-1.28.56a.08.08,0,0,0,0,.11.08.08,0,0,0,.11,0l1.28-.56Zm.34.78a.08.08,0,1,0-.07-.15l-1.28.55a.08.08,0,0,0,0,.11.08.08,0,0,0,.11.05l1.28-.56Zm-4-10.38h.22l0,0h0a.1.1,0,0,1,.05,0,.16.16,0,0,1,.06.08h0l1.79,4.13,2.87,6.63.28-.12a.4.4,0,0,1,.54.21l0,.05a.41.41,0,0,1-.21.54l-3.15,1.36A.41.41,0,0,1,12,36l0,0a.42.42,0,0,1,.21-.54l.29-.12L9.64,28.7,7.85,24.58h0a.44.44,0,0,1,0-.1V24.4h0a.43.43,0,0,0,0-.05v0l0,0h0A.24.24,0,0,1,8,24.2H8L8.35,24l-.48-1.11A.18.18,0,0,1,8,22.69l.1,0-.57-1.32a.16.16,0,0,1,.08-.21l.53-.23a.17.17,0,0,1,.22.08l.57,1.32.1,0a.17.17,0,0,1,.23.09l.49,1.12Z" style="fill:#fff;fill-rule:evenodd"/><text></text><path d="M41.28,24.73H33.46c0-.76,0-1.52,0-2.28,0-1.12-.3-1.42-1.45-1.43H26.2c-1.15,0-1.43.31-1.45,1.44,0,.66,0,1.33,0,2,0,.06,0,.12-.11.26H16.87c0-.27-.06-.57-.07-.87v-6c0-1.34.2-1.54,1.51-1.57a1.76,1.76,0,0,0,1.48-.48,1.84,1.84,0,0,1,1.8-.07c.8.92,1.64.42,2.51.51,0-.36,0-.64.06-.91A2.32,2.32,0,0,1,26.64,13c1.51,0,3,0,4.54,0,1.78,0,2.61.84,2.69,2.64,0,.17,0,.35.08.64.87-.18,1.78.41,2.58-.58a1.79,1.79,0,0,1,1.74,0c.57.71,1.23.43,1.86.6.42.12,1.09.52,1.1.81C41.32,19.64,41.28,22.16,41.28,24.73Zm-16-8.54h7.46C32.91,14.52,32.48,14,31,14h-3.9C25.53,14,25.09,14.55,25.29,16.19Z" style="fill:#fff;fill-rule:evenodd"/><path d="M41.29,25.93c0,2.53,0,5,0,7.44,0,.36-.58.73-1,1-.16.12-.48,0-.73,0h-21c-1.58,0-1.77-.2-1.77-1.74V26h8c0,.81,0,1.61,0,2.41a1.07,1.07,0,0,0,1.18,1.27c2.11,0,4.22,0,6.33,0a1.08,1.08,0,0,0,1.22-1.24c0-.8,0-1.6,0-2.45Z" style="fill:#fff;fill-rule:evenodd"/><path d="M31.68,24.3v2.07l-1.39.14c0,.43-.06.84-.1,1.34H28.05c0-.4-.09-.83-.14-1.34l-1.37-.14V24.31l1.38-.15c0-.44.06-.85.1-1.35h2.13c.05.41.1.85.15,1.35Z" style="fill:#fff;fill-rule:evenodd"/></g></g></svg>