<svg xmlns="http://www.w3.org/2000/svg" viewBox="0 0 49.85 56.13"><title>Asset 11</title><g id="Layer_2" data-name="Layer 2"><g id="Layer_1-2" data-name="Layer 1"><path d="M0,24.92A24.92,24.92,0,0,0,24.76,49.84V0A24.92,24.92,0,0,0,0,24.92Z" style="fill:#a41e24"/><path d="M49.85,24.92C49.85,11.16,38.39,0,24.25,0h-.16V49.84h.16C38.39,49.84,49.85,38.68,49.85,24.92Z" style="fill:#a41e24"/><path d="M48.16,24.92A23.24,23.24,0,1,1,24.93,1.68,23.26,23.26,0,0,1,48.16,24.92Zm-2,0A21.27,21.27,0,1,0,24.93,46.19,21.29,21.29,0,0,0,46.19,24.92Z" style="fill:#fff"/><text></text><path d="M29.13,26.34l-.95-.73c0,.09,0,.15,0,.27a6.08,6.08,0,0,0-1.71-1.68c0,.08,0,.13,0,.17.08,1.15.15,2.3.23,3.45,0,.07,0,.15.05.23a.42.42,0,0,1,0,.19s-.1,0-.13,0a.34.34,0,0,1-.09-.15c-.08-1.25-.15-2.49-.23-3.73a1.28,1.28,0,0,0,0-.18,6,6,0,0,0-1.66,1.67c0-.11,0-.17,0-.27l-1,.74c0-.13.05-.21.09-.35l-.7.5c0-.08,0-.13,0-.22l-.79.42c0-.06,0-.1,0-.18l-.8.33a1.11,1.11,0,0,0,0-.17l-1.72.61,0,0,1.52-1.17L21.09,26l.77-.41-.19-.14,1-.35-.23-.16,1.14-.22-.2-.13.82-.08v-.16L26,24.15s0,0,0-.08l-2.82.26.2-.22-1.27.25.18-.27-1.19.16.13-.22-1.05.16.25-.3-1.3-.07.29-.24-1.24-.23.41-.25-1.12-.16.28-.22-1-.16L17,22.4l-.82-.22.28-.17-.86-.14,0-.05.21-.11-1.62-.36V21.3l1.33-.14c0-.07,0-.14,0-.22l.93.1-.11-.23.91.11c.13,0,.26,0,.2-.19l1.1.23c0-.11,0-.18-.06-.29l1,.4c0-.1,0-.18,0-.3l1,.52c0-.09,0-.16,0-.27l.81.51a1.94,1.94,0,0,0,0-.24l.74.63v-.27l.86.66c0-.1,0-.18,0-.29l.84.74c0-.1,0-.15,0-.25L26,23.88l0,0-2-1.39.22-.06L23.37,22l.2-.1-1-.43a.76.76,0,0,1,.08-.11L21.78,21l.16-.17L21,20.35l.23-.1s0,0,0,0l-1.4-.91.28-.05-1-.58.19-.09-.62-.46.27-.09-.77-.61.19-.13-.75-.64.31-.16-.73-.67.36,0L17,15.13l.26-.09-.61-.78L17,14.2l-.53-.78.2-.08-.63-.7.22-.08-.82-1.35,0,0,1.34,1.08.11-.17.72.79a2.4,2.4,0,0,1,0-.24l.78.75a1.87,1.87,0,0,0,0-.25l.71.87.08-.15.61.81.05-.21.52.84.1-.18L21,16c0-.14.06-.24.09-.39l.5,1.07.12-.31.55,1.14.1-.25c.23.46.44.89.69,1.38,0-.12,0-.19,0-.31.21.42.39.8.58,1.17l.11-.08c.15.38.3.75.46,1.17,0-.11.07-.17.12-.29.14.42.27.79.42,1.19a2.08,2.08,0,0,1,.1-.24,7.76,7.76,0,0,0,1.29,2.51,13.59,13.59,0,0,1-.55-1.71c-.08-.48-.36-.88-.4-1.32a3.12,3.12,0,0,1-.15-.87c.07-.36-.17-.61-.22-.91,0-.06,0-.12,0-.18a.36.36,0,0,0,0-.15c-.05-.19-.13-.37-.17-.56s-.19-.26,0-.38c0,0,0-.15,0-.23-.06-.31-.11-.62-.18-.95l.2,0c-.08-.39-.15-.77-.24-1.16l.18,0c-.06-.39-.11-.77-.17-1.17l.2,0c0-.3-.06-.57-.08-.86l.16,0c0-.32-.07-.64-.1-1l.18,0c0-.35-.07-.69-.11-1.06l.27.07c0-.34-.05-.66-.08-.94.31-.29.07-.65.21-.92a.8.8,0,0,0,.13-.19c0-.16,0-.33.08-.5s.07-.1.11-.16l.06,0c0-.28.05-.56.08-.84l.05,0a.7.7,0,0,0,.13-.17c0-.18.06-.37.1-.55s0-.23.16-.19A1.07,1.07,0,0,0,26.12,7c.07-.43.15-.87.26-1.31.08.5.17,1,.25,1.49l.05,0s.11.1.13.17c.05.24.09.49.14.75l.15,0c0,.21,0,.42.06.61s-.06.28.16.26l0,.1c0,.22.07.43.1.66h.17v.89h.16c0,.33-.06.66-.1,1l.29-.08-.12,1.06.19,0c0,.32-.07.63-.11,1l.17,0c0,.29-.06.57-.09.87l.2,0c-.05.39-.11.77-.17,1.17l.18,0c-.08.39-.16.76-.25,1.16l.21,0c-.07.34-.12.66-.18,1,0,.09-.11.22.08.26a.72.72,0,0,1,0,.13c-.06.21-.14.41-.19.63s-.18.22,0,.3a.45.45,0,0,1,0,.08c-.3.49-.22,1.08-.44,1.59a.55.55,0,0,0,0,.17s0,.08,0,.11A14.17,14.17,0,0,0,27,22.42c-.17.39-.29.8-.43,1.2l0,.14.06,0c.23-.4.48-.8.68-1.21s.37-.86.55-1.3l.09.23.41-1.19.13.27L29,19.42l.1.09c.19-.37.37-.74.58-1.17,0,.12,0,.19,0,.3.24-.47.45-.9.68-1.36l.11.23c.18-.37.36-.73.55-1.14.05.13.07.21.11.32l.51-1.07.08.4c.17-.32.33-.6.5-.91l.1.18.52-.84c0,.07,0,.11.06.19l.6-.77.1.11.68-.84c0,.09,0,.14.06.24l.77-.74c0,.08,0,.13,0,.23l.73-.8a1.82,1.82,0,0,1,.08.19l1.37-1.1,0,0-.82,1.36.21.09-.61.69.18.09-.53.78.29.05-.62.79.28.07-.55.68.36,0-.72.65.29.18-.76.63.22.14-.77.6.25.1c-.2.16-.39.31-.6.46l.19.08-1,.59.28,0s0,0,0,0l-1.41.92.22.11-.94.46.23.13-.92.39.09.11-1,.43.19.1-.81.42.25.05-1.91,1.3,0,.05,2.15-1.27v.23l.84-.74c0,.11,0,.18,0,.29l.84-.64v.26c.26-.21.49-.4.74-.62,0,.09,0,.15,0,.23L32.4,21v.29l1-.53c0,.11,0,.19,0,.3l1-.39c0,.09,0,.17,0,.28l1.08-.23c0,.06,0,.12,0,.21l1.09-.12-.1.22.94-.1c0,.08,0,.13-.07.21l1.34.15v.05l-1.58.35.18.16-.9.15.29.17-.83.21.28.17-1,.16.28.22-1.12.16.4.25-1.24.22.31.25-1.32.06.26.3L31.55,24l.15.23-1.2-.17a3.16,3.16,0,0,1,.18.27l-1.28-.25.2.22-2.89-.26a.25.25,0,0,1,0,.08l1.79.17c0,.06,0,.11,0,.16l.81.07-.17.15,1.12.2-.21.17,1,.35-.21.13.8.43-.16.09L33,27.25l0,0-1.73-.62a1.62,1.62,0,0,0,0,.19l-.8-.34a1.23,1.23,0,0,0,0,.19l-.79-.43c0,.08,0,.13,0,.22L29,26C29.07,26.12,29.1,26.21,29.13,26.34Z" style="fill:#fff;fill-rule:evenodd"/><path d="M35.3,39.82a3,3,0,0,1-2.68-1.56,3,3,0,0,1,0-3.13c1.3-2.22,2.64-4.43,4-6.64a3.12,3.12,0,1,1,5.3,3.29c-.89,1.47-1.77,2.95-2.66,4.43-.41.69-.82,1.39-1.24,2.08A3.13,3.13,0,0,1,35.3,39.82Zm4.31-5,0-.07c.67-1.11,1.34-2.21,2-3.32A2.49,2.49,0,0,0,42,29.71a2.73,2.73,0,0,0-5-1c-1.33,2.2-2.66,4.4-4,6.62a2.73,2.73,0,0,0,2.22,4.12,2.39,2.39,0,0,0,.92-.12,6.28,6.28,0,0,1-1-.08,2.62,2.62,0,0,1-1.65-3.94c.58-1,1.17-2,1.76-2.94l.09-.12Z" style="fill:#fff;fill-rule:evenodd"/><path d="M28.17,33.29l2.44-3a2.93,2.93,0,0,1-.18-.26l-.13.15c-.78.95-1.57,1.91-2.34,2.87a.42.42,0,0,1-.44.18,9.06,9.06,0,0,1-2.3-.6,6.8,6.8,0,0,1-.8-.42v1.14a2.14,2.14,0,0,1,0,.36,1,1,0,0,0,.52,1,5.12,5.12,0,0,0,1.76.72,13.8,13.8,0,0,0,4.53.27l.91-.11c-.06.31-.06.33-.4.37a13.7,13.7,0,0,1-5.8-.41,4.27,4.27,0,0,1-1.28-.64,1.28,1.28,0,0,1-.56-1.13q0-1,0-2a1.08,1.08,0,0,1,.53-1,5.25,5.25,0,0,1,1.82-.7,14.67,14.67,0,0,1,3.62-.34h.66c0,.09.07.16.11.27.15-.32.39-.21.6-.19a9.56,9.56,0,0,1,2.79.62c.24.1.47.23.72.36l-.29.49c-.28.46-.55.93-.83,1.38a.43.43,0,0,1-.24.18,12.89,12.89,0,0,1-3.65.48c-.49,0-1,0-1.46,0Z" style="fill:#fff;fill-rule:evenodd"/><path d="M39.61,34.83l-4.34-2.6-.09.12c-.59,1-1.18,2-1.76,2.94a2.62,2.62,0,0,0,1.65,3.94,6.28,6.28,0,0,0,1,.08,2.39,2.39,0,0,1-.92.12A2.73,2.73,0,0,1,33,35.31c1.31-2.22,2.64-4.42,4-6.62a2.73,2.73,0,0,1,5,1,2.49,2.49,0,0,1-.31,1.73c-.65,1.11-1.32,2.21-2,3.32Z" style="fill:#80184c;fill-rule:evenodd"/><path d="M20,34.49l.37-.41c-.86-.79-1.35.37-2.32.28l-10-10.21c-.57.5-1,1-1.46,1.38l-.18-.23,2.18-2L6.57,21l-.8,1.12L5.61,22l-.4-.25,3.59-3.5c.22.16.25.4-.09.67s-.45.39-.7.61l2.11,1.92,2.11-2.12c.16.26.16.26-1.11,1.74a2.48,2.48,0,0,1,.51.33l9.52,9.43a.61.61,0,0,1,.16.86c-.21.36-.36.75-.55,1.16l.42.35.41-.32.29.56,0,.05c.73.92,1.74,1.61,2.16,2.83A4.85,4.85,0,0,0,25.35,38c1.3,1.34,2.65,2.64,4,4a1.76,1.76,0,0,1,.27.4l-.16.13c-.39-.4-.77-.81-1.17-1.2-1.06-1.06-2.11-2.12-3.18-3.16a4.69,4.69,0,0,0-2.31-1.45c-.2,0-.37-.25-.54-.4-.54-.5-1.07-1-1.63-1.5A3.61,3.61,0,0,0,20,34.49Zm-8.13-9,.34.32L14,24.18l-.35-.32ZM18.41,32l1.76-1.69-.27-.29c-.61.57-1.18,1.1-1.79,1.65Zm-4.66-4.67,1.74-1.67-.36-.4L13.39,27ZM15,28.57l.36.34,1.72-1.62-.32-.41Zm1.91,1.9,1.72-1.68-.35-.32-1.7,1.6C16.67,30.22,16.77,30.35,16.88,30.47Z" style="fill:#fff;fill-rule:evenodd"/><path d="M11.87,25.48l1.75-1.62.35.32L12.21,25.8Z" style="fill:#c64031;fill-rule:evenodd"/><path d="M18.41,32l-.3-.33c.61-.55,1.18-1.08,1.79-1.65l.27.29Z" style="fill:#c64031;fill-rule:evenodd"/><path d="M13.75,27.36,13.39,27l1.74-1.69.36.4Z" style="fill:#c64031;fill-rule:evenodd"/><path d="M15,28.57l1.76-1.69.32.41-1.72,1.62Z" style="fill:#c64031;fill-rule:evenodd"/><path d="M16.88,30.47c-.11-.12-.21-.25-.33-.4l1.7-1.6.35.32Z" style="fill:#c64031;fill-rule:evenodd"/></g></g></svg>