<svg xmlns="http://www.w3.org/2000/svg" width="11.036" height="10.875" viewBox="0 0 11.036 10.875">
  <g id="Group_2181" data-name="Group 2181" transform="translate(-9006.911 -10128.835)">
    <path id="Path_3214" data-name="Path 3214" d="M9017.581,10133.545h-3.542l-.633.633a1.16,1.16,0,0,1-.12.1h3.93v2.438l-.38-1.338a.366.366,0,0,0-.352-.266h-7.742v-2.036h2.738v-.732h-3.1a.366.366,0,0,0-.366.366v2.4h-.731a.367.367,0,0,0-.354.466l1.057,3.678a.623.623,0,0,0,.6.454h8.738a.626.626,0,0,0,.626-.626v-5.173a.366.366,0,0,0-.366-.366Zm0,0" fill="#106f49"/>
    <path id="Path_3215" data-name="Path 3215" d="M9012.888,10128.924a.3.3,0,0,0-.215-.089.3.3,0,0,0-.214.089l-1.7,1.7a.3.3,0,0,0,.214.519h.743v2.2a.4.4,0,0,0,.405.405h1.1a.4.4,0,0,0,.4-.405v-2.2h.743a.3.3,0,0,0,.214-.519Zm0,0" fill="#106f49"/>
  </g>
</svg>
