<svg xmlns="http://www.w3.org/2000/svg" viewBox="0 0 17 19.2"><title>Asset 21</title><g id="Layer_2" data-name="Layer 2"><g id="Layer_1-2" data-name="Layer 1"><path d="M4.49,9.84c0-.52-.36-.83-1-.83A2,2,0,0,0,3,9.06v1.66a2.46,2.46,0,0,0,.43,0c.67,0,1.09-.34,1.09-.91Z" style="fill:#38a86b"/><path d="M8.41,9a2.27,2.27,0,0,0-.57.05v3.67a1.89,1.89,0,0,0,.44,0,1.74,1.74,0,0,0,1.9-2A1.61,1.61,0,0,0,8.41,9Z" style="fill:#38a86b"/><path d="M15.92,6.87h-.46V4.6a.36.36,0,0,0-.09-.24L11.67.13h0L11.59.06h0s-.05,0-.08,0H2.29a.75.75,0,0,0-.75.75V6.87H1.08A1.07,1.07,0,0,0,0,7.94v5.6a1.07,1.07,0,0,0,1.08,1.07h.46v3.83a.75.75,0,0,0,.75.76H14.71a.75.75,0,0,0,.75-.76V14.61h.46A1.07,1.07,0,0,0,17,13.54V7.94a1.07,1.07,0,0,0-1.08-1.07ZM2.29.75H11V4.6a.38.38,0,0,0,.38.38h3.32V6.87H2.29Zm9.24,10a2.86,2.86,0,0,1-.93,2.28,4.08,4.08,0,0,1-2.6.72,11.44,11.44,0,0,1-1.44-.08V8.17a10.78,10.78,0,0,1,1.72-.12,3.59,3.59,0,0,1,2.3.6,2.51,2.51,0,0,1,.95,2.12ZM1.71,13.71V8.17a10.13,10.13,0,0,1,1.72-.12,2.68,2.68,0,0,1,1.72.45,1.63,1.63,0,0,1,.6,1.3,1.79,1.79,0,0,1-.52,1.34,2.58,2.58,0,0,1-1.82.59,2.76,2.76,0,0,1-.44,0v2Zm13,4.53H2.29V14.61H14.71ZM15.8,9.13H13.64v1.29h2v1h-2v2.26H12.37V8.09H15.8Z" style="fill:#38a86b"/></g></g></svg>