<svg xmlns="http://www.w3.org/2000/svg" viewBox="0 0 55.65 55.65"><title>Asset 17</title><g id="Layer_2" data-name="Layer 2"><g id="Layer_1-2" data-name="Layer 1"><circle cx="27.82" cy="27.82" r="27.46" style="fill:#38a86b;stroke:#00a651;stroke-miterlimit:10;stroke-width:0.718318110261264px"/><path d="M37,17.11h4.14L37,13Z" style="fill:#fff"/><path d="M35.78,17.74V12.08H19.4V43.57H42.07V18.37H36.41a.63.63,0,0,1-.63-.63Zm-12.6-1.89h5v1.26h-5Zm0,7.56H33.26v1.26H23.18Zm0,7.56h4.41v1.26H23.18Zm2.52,8.82H23.18V38.53H25.7Zm12.6,0H27V38.53H38.3Zm0-3.78H23.18V34.75H38.3Zm0-3.78H28.85V31H38.3Zm0-3.78H23.18V27.19H38.3Zm0-3.78H34.52V23.41H38.3Zm0-3.78H23.18V19.63H38.3Z" style="fill:#fff"/><path d="M24.2,44.33H14.6a.36.36,0,0,1-.36-.36V33.18a.36.36,0,0,1,.36-.36h9.6a.36.36,0,0,1,.36.36V44a.36.36,0,0,1-.36.36Z" style="fill:#5f6c82"/><path d="M20.49,36.19H18.31a.69.69,0,0,1-.7-.69v-.3a.2.2,0,0,1,.4,0v.3a.29.29,0,0,0,.3.29h2.18a.3.3,0,0,0,.3-.29v-.3A.2.2,0,0,1,21,35a.19.19,0,0,1,.19.2v.3a.69.69,0,0,1-.69.69Z" style="fill:#ecf0f1"/><path d="M20.49,42H18.31a.7.7,0,0,1-.7-.7V41a.2.2,0,1,1,.4,0v.29a.29.29,0,0,0,.3.3h2.18a.3.3,0,0,0,.3-.3V41a.2.2,0,0,1,.2-.2.19.19,0,0,1,.19.2v.29a.69.69,0,0,1-.69.7Z" style="fill:#ecf0f1"/><rect x="14.24" y="38.37" width="10.32" height="0.4" style="fill:#394050"/></g></g></svg>