<svg xmlns="http://www.w3.org/2000/svg" viewBox="0 0 54.93 54.93"><title>Asset 19</title><g id="Layer_2" data-name="Layer 2"><g id="Layer_1-2" data-name="Layer 1"><circle cx="27.46" cy="27.46" r="27.46" style="fill:#38a86b;opacity:0.12"/><path d="M34.77,17.2h3.81l-3.81-3.82Z" style="fill:#82e0a8"/><path d="M33.61,17.78V12.56H18.54v29H39.4V18.35H34.19a.57.57,0,0,1-.58-.57ZM22,16h4.63V17.2H22Zm0,7h9.27v1.16H22Zm0,7h4.05V31.1H22Zm2.32,8.12H22V36.9h2.32Zm11.59,0H25.49V36.9H35.93Zm0-3.48H22V33.42H35.93Zm0-3.48h-8.7V29.94h8.7Zm0-3.47H22V26.47H35.93Zm0-3.48H32.45V23h3.48Zm0-3.48H22V19.51H35.93Z" style="fill:#82e0a8"/><path d="M22.28,41.1a4,4,0,1,1-3.94-3.93A3.93,3.93,0,0,1,22.28,41.1Z" style="fill:#fff"/><path d="M19.71,41.53h-1v1a.42.42,0,0,1-.42.42.41.41,0,0,1-.41-.42v-1H17a.41.41,0,1,1,0-.82h1v-1a.41.41,0,0,1,.41-.42.42.42,0,0,1,.42.42v1h1a.41.41,0,1,1,0,.82Z" style="fill:#82e0a8"/></g></g></svg>